<svg xmlns="http://www.w3.org/2000/svg" xmlns:xlink="http://www.w3.org/1999/xlink" viewBox="0 0 24 24">
  <g fill="none" stroke="currentColor" stroke-width="2" stroke-linecap="round" stroke-linejoin="round">
    <path d="M8 13V4.5a1.5 1.5 0 0 1 3 0V12"></path>
    <path d="M11 11.5v-2a1.5 1.5 0 0 1 3 0V12"></path>
    <path d="M14 10.5a1.5 1.5 0 0 1 3 0V12"></path>
    <path d="M17 11.5a1.5 1.5 0 0 1 3 0V16a6 6 0 0 1-6 6h-2h.208a6 6 0 0 1-5.012-2.7L7 19c-.312-.479-1.407-2.388-3.286-5.728a1.5 1.5 0 0 1 .536-2.022a1.867 1.867 0 0 1 2.28.28L8 13"></path>
    <path d="M5 3L4 2"></path>
    <path d="M4 7H3"></path>
    <path d="M14 3l1-1"></path>
    <path d="M15 6h1"></path>
  </g>
</svg>