<svg color="rgb(107, 111, 118)" width="16" xmlns="http://www.w3.org/2000/svg" xmlns:xlink="http://www.w3.org/1999/xlink" viewBox="0 0 32 32"><path d="M28 22h2v8h-2z" fill="currentColor"></path><path d="M24 18h2v12h-2z" fill="currentColor"></path><path d="M20 26h2v4h-2z" fill="currentColor"></path><path d="M9 16a7 7 0 1 0 7 7a7.008 7.008 0 0 0-7-7zm4.899 6H10v-3.899A5.014 5.014 0 0 1 13.899 22zM9 28a5 5 0 0 1-1-9.899V22a2 2 0 0 0 2 2h3.899A5.008 5.008 0 0 1 9 28z" fill="currentColor"></path><path d="M22.535 12l4-6H30V4h-4.535l-4 6H18V2h-2v12a2 2 0 0 0 2 2h12v-2H18v-2z" fill="currentColor"></path><circle cx="11" cy="7" r="1" fill="currentColor"></circle><circle cx="9" cy="11" r="1" fill="currentColor"></circle><circle cx="7" cy="5" r="1" fill="currentColor"></circle><circle cx="5" cy="9" r="1" fill="currentColor"></circle><circle cx="3" cy="13" r="1" fill="currentColor"></circle></svg>